<?xml version="1.0" standalone="no"?>
<!DOCTYPE svg PUBLIC "-//W3C//DTD SVG 20010904//EN"
 "http://www.w3.org/TR/2001/REC-SVG-20010904/DTD/svg10.dtd">
<svg version="1.0" xmlns="http://www.w3.org/2000/svg"
 width="2000.000000pt" height="2000.000000pt" viewBox="0 0 2000.000000 2000.000000"
 preserveAspectRatio="xMidYMid meet">

<g transform="translate(0.000000,2000.000000) scale(0.100000,-0.100000)"
fill="#000000" stroke="none">
<path d="M13795 18777 c-25 -39 -54 -176 -66 -310 -12 -134 -2 -384 21 -512
34 -188 47 -249 87 -394 49 -179 126 -408 178 -526 7 -16 27 -64 44 -105 60
-141 76 -175 172 -370 91 -182 192 -366 369 -670 133 -228 295 -562 401 -827
44 -111 161 -452 188 -548 6 -22 19 -71 30 -110 11 -38 27 -101 36 -140 9 -38
20 -88 25 -110 66 -279 120 -751 120 -1036 0 -110 -23 -439 -39 -549 -14 -104
-39 -238 -71 -380 -86 -382 -295 -835 -534 -1155 -97 -130 -151 -192 -314
-357 -134 -135 -154 -159 -143 -172 33 -39 60 -22 217 137 284 286 481 571
642 928 58 128 125 307 152 404 60 215 99 393 119 540 6 44 16 121 23 170 18
122 18 733 0 875 -36 294 -42 336 -84 540 -56 273 -90 401 -174 655 -47 143
-126 355 -168 450 -8 17 -33 75 -57 130 -52 123 -205 423 -286 565 -33 58
-111 193 -173 300 -105 183 -271 505 -334 650 -212 488 -304 796 -366 1227 -5
39 -10 147 -10 240 0 176 14 287 49 390 18 53 18 59 4 75 -22 24 -40 23 -58
-5z"/>
<path d="M3605 18204 c-78 -12 -181 -58 -252 -111 -30 -23 -36 -24 -83 -14
-156 34 -301 -8 -399 -114 -54 -58 -85 -129 -102 -228 l-13 -77 -58 -46 c-103
-81 -168 -209 -168 -330 0 -62 -8 -52 140 -179 58 -49 128 -111 155 -136 28
-26 63 -58 79 -71 35 -29 31 -38 -30 -72 -55 -31 -68 -32 -86 -8 -48 65 -115
88 -162 57 -35 -23 -69 -109 -64 -160 15 -125 142 -245 261 -245 50 0 119 30
141 62 23 33 19 77 -9 114 l-26 34 62 40 c53 34 65 38 78 27 9 -7 98 -87 199
-177 l182 -163 -57 -39 c-65 -43 -75 -45 -94 -21 -30 36 -93 73 -123 73 -37
-1 -57 -14 -85 -60 -26 -44 -29 -145 -5 -192 26 -50 95 -118 148 -145 108 -55
256 1 256 95 0 10 -12 35 -26 55 -14 21 -24 40 -22 41 25 21 116 76 124 76 17
0 360 -317 352 -325 -2 -2 -42 -29 -88 -59 l-85 -55 -40 38 c-66 64 -109 76
-154 45 -32 -23 -61 -90 -61 -142 0 -55 39 -139 85 -180 83 -76 169 -99 247
-64 88 39 111 95 64 162 l-23 34 23 18 c12 10 25 18 28 18 3 0 29 16 56 35 27
19 58 35 67 35 10 0 46 -28 80 -62 60 -59 64 -62 108 -59 128 6 285 -49 446
-155 113 -75 160 -123 324 -324 17 -20 49 -59 72 -86 37 -43 616 -738 711
-854 20 -24 97 -117 171 -205 309 -371 379 -455 405 -485 11 -14 64 -77 116
-140 52 -63 97 -117 100 -120 3 -3 44 -52 92 -110 119 -143 652 -784 699 -840
36 -43 223 -268 300 -361 218 -263 794 -955 799 -959 5 -5 84 -99 291 -350 61
-74 130 -157 154 -185 147 -173 505 -609 505 -615 0 -5 -36 -46 -81 -92 -575
-591 -1016 -1286 -1119 -1768 -7 -30 -17 -73 -23 -95 -17 -57 -16 -386 1 -450
75 -276 221 -514 459 -746 173 -169 376 -311 708 -494 557 -307 623 -386 679
-810 14 -102 22 -173 47 -415 28 -274 62 -527 89 -663 6 -26 15 -70 20 -97 81
-405 202 -741 394 -1095 158 -289 443 -625 721 -848 96 -77 384 -277 399 -277
3 0 29 -14 58 -31 82 -49 279 -145 397 -195 58 -25 115 -49 126 -53 11 -5 36
-14 55 -21 19 -7 44 -16 55 -20 29 -12 223 -75 270 -88 122 -33 164 -42 193
-42 17 0 33 -4 36 -9 13 -21 329 -51 540 -51 512 0 1005 122 1500 372 617 312
1159 806 1578 1438 83 126 178 279 178 287 0 3 8 17 19 31 45 65 182 346 281
577 95 223 194 573 239 845 69 420 61 852 -21 1235 -125 579 -395 1089 -815
1542 -68 73 -92 93 -117 95 -25 2 -31 8 -32 27 -1 15 -18 40 -45 65 -290 270
-661 477 -1109 621 -195 63 -226 72 -545 161 -208 58 -257 73 -390 122 -361
133 -609 361 -716 659 -11 32 -24 67 -28 78 -5 11 -16 45 -26 75 -63 195 -179
443 -284 605 -59 91 -192 264 -203 265 -5 0 -8 -23 -8 -52 0 -46 5 -58 44
-107 158 -203 276 -437 402 -801 80 -233 158 -364 297 -497 196 -188 455 -308
932 -433 222 -58 681 -200 710 -220 6 -4 37 -17 70 -30 273 -106 603 -313 840
-528 38 -35 201 -211 275 -298 205 -238 412 -580 517 -854 14 -36 29 -74 33
-85 11 -24 52 -152 70 -215 7 -25 16 -58 21 -75 61 -216 99 -522 99 -788 0
-328 -44 -630 -141 -972 -148 -524 -418 -1051 -785 -1535 -554 -730 -1280
-1231 -2089 -1440 -462 -119 -937 -127 -1395 -23 -62 14 -283 84 -325 103 -11
5 -49 21 -85 36 -253 109 -452 245 -640 440 -153 158 -249 285 -366 485 -134
229 -316 649 -374 864 -5 17 -25 84 -45 150 -33 109 -114 420 -135 520 -39
189 -83 409 -91 452 -5 29 -14 79 -19 110 -6 32 -15 83 -20 113 -12 75 -48
292 -60 363 -6 31 -15 85 -20 120 -58 341 -94 445 -201 575 -112 136 -283 252
-654 447 -164 86 -251 133 -340 183 -500 284 -759 575 -856 960 -24 97 -51
362 -38 376 5 6 9 29 9 52 0 78 48 288 91 398 10 27 19 52 19 57 0 4 16 43 35
86 164 363 394 694 743 1071 102 110 105 112 124 95 17 -15 56 -60 170 -198
33 -40 151 -181 172 -205 11 -14 39 -47 61 -75 22 -27 42 -52 45 -55 11 -9
185 -219 460 -552 74 -90 142 -172 152 -183 99 -117 138 -168 138 -181 0 -9
-8 -44 -17 -78 -12 -46 -17 -103 -17 -231 0 -153 3 -180 27 -268 100 -365 369
-652 714 -761 185 -58 378 -69 558 -31 38 8 73 15 77 15 3 0 44 -44 89 -97 46
-54 98 -114 116 -134 19 -20 46 -52 61 -71 15 -20 61 -75 102 -123 95 -111
125 -147 288 -344 73 -89 137 -161 142 -161 6 0 10 -7 10 -15 0 -8 36 -58 81
-111 l80 -96 -26 -31 c-14 -18 -56 -69 -93 -113 -304 -367 -509 -659 -500
-715 2 -18 23 -28 123 -61 117 -37 280 -99 320 -120 98 -53 153 -78 170 -78
11 1 49 28 85 61 75 70 232 206 305 264 28 21 52 42 55 45 5 5 79 60 215 161
60 44 125 86 267 173 113 69 174 141 263 315 97 190 206 334 437 577 37 40 68
78 68 86 0 8 -14 53 -31 99 -64 173 -118 337 -144 434 -31 117 -43 134 -83
119 -40 -16 -234 -155 -472 -338 -47 -37 -106 -82 -132 -101 l-47 -34 -87 97
c-48 53 -121 133 -163 177 -42 44 -110 118 -151 165 -41 46 -84 93 -95 105
-11 11 -38 41 -60 66 -22 25 -76 85 -121 134 -184 204 -251 281 -291 330 l-41
52 19 79 c44 182 33 411 -27 594 -88 264 -294 505 -539 627 -172 87 -313 117
-514 109 -80 -3 -159 -6 -175 -8 -26 -3 -39 8 -113 92 -46 52 -123 139 -171
193 -48 54 -109 124 -137 156 -27 32 -78 89 -111 127 -34 38 -111 125 -170
193 -60 69 -163 186 -229 260 -66 75 -135 154 -154 176 -18 22 -52 60 -75 85
-71 78 -106 120 -106 130 0 10 202 162 302 226 165 106 392 228 508 272 125
49 266 90 385 113 93 18 439 19 515 1 290 -68 505 -185 718 -391 29 -28 55
-51 59 -51 10 0 32 34 33 50 0 9 -28 43 -62 76 -331 320 -761 462 -1209 399
-127 -18 -330 -69 -414 -104 -11 -5 -45 -19 -75 -31 -160 -65 -577 -275 -746
-375 l-121 -72 -194 221 c-107 121 -215 243 -240 271 -47 51 -383 434 -454
516 -22 26 -87 100 -145 164 -58 65 -122 139 -144 164 -21 25 -59 69 -85 97
-25 28 -73 82 -106 119 -33 38 -80 92 -104 120 -24 27 -74 84 -111 125 -53 60
-253 288 -535 610 -16 19 -48 55 -71 80 -22 25 -78 88 -124 140 -308 352 -514
586 -730 830 -120 136 -122 138 -280 319 -137 157 -263 300 -375 426 -34 39
-216 246 -404 460 -189 215 -373 424 -410 465 -94 104 -184 212 -197 235 -11
20 -81 154 -185 352 -50 95 -53 105 -40 125 55 87 60 153 18 239 -65 133 -178
189 -294 147 -38 -14 -44 -10 -135 106 l-46 59 29 31 c39 42 53 87 46 156 -8
90 -63 177 -138 220 -31 17 -57 23 -106 23 -56 0 -69 -4 -101 -30 l-38 -30
-27 31 c-32 38 -33 46 -6 77 75 87 58 226 -40 327 -76 79 -171 95 -253 43
l-46 -29 -44 51 c-40 46 -116 137 -173 207 -11 13 -38 44 -60 67 l-40 44 -95
3 c-52 3 -108 2 -125 0z m188 -80 c7 -3 42 -42 79 -87 75 -92 577 -699 1002
-1210 l280 -339 153 -291 c84 -161 153 -293 153 -294 0 -2 -6 -3 -13 -3 -11 0
-438 479 -459 515 -4 7 -3 27 3 45 19 52 6 125 -28 168 -47 58 -87 77 -165 77
l-66 0 -71 82 c-68 79 -71 84 -57 105 52 80 14 213 -73 257 -56 29 -101 34
-148 18 l-41 -14 -91 104 -91 105 21 34 c11 18 23 57 26 86 6 67 -25 130 -86
173 -35 25 -52 30 -99 30 -115 -1 -192 -77 -192 -190 0 -75 29 -128 90 -163
43 -26 92 -31 177 -20 19 2 37 -17 102 -107 l79 -109 -16 -31 c-23 -43 -21
-122 4 -170 12 -22 40 -53 63 -69 34 -25 52 -30 104 -32 l62 -1 67 -93 67 -93
-6 -62 c-3 -37 -1 -76 6 -98 22 -65 112 -126 186 -127 15 0 72 -72 213 -269
105 -148 194 -276 197 -283 3 -8 -14 -24 -40 -40 l-44 -26 -43 33 c-71 55
-715 536 -803 600 -294 215 -322 238 -333 281 -22 82 -91 134 -177 134 -43 0
-55 7 -168 91 l-122 91 0 52 c-1 68 -30 123 -84 161 -37 26 -52 30 -104 30
-114 -1 -192 -78 -192 -191 0 -49 5 -68 28 -102 56 -85 171 -111 261 -58 25
15 46 31 46 36 0 23 27 5 110 -72 l89 -81 -27 -35 c-21 -28 -27 -48 -30 -101
-3 -59 0 -71 26 -112 62 -96 194 -116 282 -42 35 29 32 30 138 -68 l72 -67
-27 -48 c-103 -184 107 -376 277 -253 40 29 42 30 64 12 48 -37 476 -436 476
-444 0 -4 -9 -11 -20 -14 -15 -5 -43 11 -107 60 -160 120 -365 204 -502 205
l-56 1 -100 96 c-95 92 -470 441 -565 527 -25 23 -90 82 -145 132 -150 136
-461 411 -643 569 -109 94 -162 147 -162 160 0 75 57 192 120 249 71 64 61 66
229 -45 106 -69 158 -98 171 -94 20 6 33 31 24 46 -3 5 -72 55 -155 111 -146
100 -149 103 -149 138 0 77 48 193 99 238 84 75 187 103 301 83 69 -13 73 -15
103 -59 97 -138 117 -162 141 -162 49 0 42 34 -24 127 -34 47 -64 92 -67 98
-10 27 126 98 217 114 52 9 157 6 183 -5z m281 -488 c69 -29 57 -64 -14 -40
-34 12 -53 13 -77 6 -55 -17 -67 21 -13 41 27 10 70 7 104 -7z m-699 -500 c32
-14 44 -34 29 -49 -4 -3 -24 1 -45 10 -27 10 -53 13 -83 9 -49 -8 -65 4 -40
28 20 20 93 21 139 2z m1133 -16 c27 -17 31 -24 22 -35 -9 -11 -17 -11 -47 1
-25 11 -51 13 -84 9 -41 -6 -49 -4 -49 9 0 38 105 48 158 16z m111 -409 c29
-35 49 -66 46 -70 -7 -6 -18 8 -89 109 -46 65 -30 50 43 -39z m-779 -7 c38
-15 51 -36 31 -48 -5 -3 -26 1 -47 10 -28 12 -46 13 -75 6 -40 -10 -49 -7 -49
15 0 32 78 42 140 17z m1048 -64 c27 -17 31 -24 22 -35 -9 -11 -17 -11 -48 2
-25 10 -51 13 -84 9 -39 -5 -48 -4 -48 8 0 39 103 49 158 16z m-800 -260 c44
-35 78 -68 76 -72 -8 -12 -23 -1 -120 91 -94 89 -86 86 44 -19z m136 -49 c-5
-6 -44 22 -89 63 -34 31 -29 29 26 -11 37 -26 65 -50 63 -52z m955 -200 c121
-139 221 -257 221 -262 0 -8 -39 -24 -44 -17 -2 1 -96 119 -209 262 -114 142
-204 262 -201 268 3 5 7 8 9 6 1 -2 102 -117 224 -257z m-57 -49 c207 -257
207 -257 185 -274 -12 -10 -27 -18 -33 -18 -6 0 -89 109 -184 243 -96 133
-183 255 -194 270 -17 24 -18 29 -6 37 8 5 17 7 20 4 3 -3 98 -121 212 -262z
m-787 184 c41 -27 18 -42 -39 -26 -26 7 -61 9 -85 5 -33 -5 -41 -4 -41 9 0 8
8 20 18 26 25 15 115 7 147 -14z m437 -337 c178 -133 325 -243 327 -245 6 -6
-32 -33 -46 -34 -19 0 -613 491 -613 506 0 8 2 14 5 14 3 0 150 -109 327 -241z
m-44 -74 c155 -126 281 -233 282 -236 0 -3 -15 -14 -34 -24 l-34 -19 -44 39
c-335 302 -475 438 -471 456 3 11 9 19 13 17 4 -2 134 -106 288 -233z m986
-237 c108 -122 128 -149 109 -147 -9 1 -236 255 -241 270 -12 32 31 -8 132
-123z m-45 -40 l120 -133 -22 -18 c-25 -20 -8 -35 -181 163 -70 80 -86 104
-75 111 8 5 19 9 26 9 6 0 65 -60 132 -132z m-84 -49 c64 -72 114 -136 112
-143 -2 -6 -15 -17 -29 -25 -28 -16 -16 -27 -182 164 l-86 100 23 17 c12 10
27 18 34 18 6 0 64 -59 128 -131z m-95 -69 c71 -81 115 -139 110 -145 -5 -5
-22 -18 -38 -27 l-29 -17 -115 132 c-63 73 -117 137 -121 144 -7 11 51 55 67
50 5 -2 62 -63 126 -137z m-129 -52 c154 -181 143 -163 116 -181 -23 -15 -26
-12 -146 131 -114 134 -122 146 -105 159 10 7 21 13 24 13 3 0 53 -55 111
-122z m-68 -68 c64 -76 117 -143 117 -148 0 -4 -13 -18 -29 -30 l-30 -22 -45
53 c-24 28 -80 95 -124 147 l-79 95 31 22 c17 12 33 22 36 22 3 1 58 -62 123
-139z m-103 -71 c63 -77 115 -144 115 -150 0 -5 -14 -18 -30 -29 l-30 -19
-123 147 -123 147 28 22 c15 13 33 23 38 22 6 0 62 -63 125 -140z m771 69
c179 -202 201 -228 192 -228 -5 0 -61 57 -124 127 -134 149 -154 173 -141 173
5 0 38 -33 73 -72z m18 -105 l132 -148 -23 -19 -23 -18 -48 53 c-27 30 -87 98
-134 152 -81 92 -85 99 -67 112 11 8 22 15 25 15 3 0 65 -66 138 -147z m-98
-40 c62 -71 120 -137 130 -148 17 -19 17 -21 -16 -42 l-34 -23 -132 152 -132
151 24 18 c13 10 29 19 36 19 6 0 62 -57 124 -127z m-87 -83 c69 -80 126 -148
126 -152 0 -9 -55 -48 -68 -48 -6 0 -67 66 -137 147 l-126 148 33 27 c18 15
36 26 40 25 4 -1 63 -67 132 -147z m-128 -57 c160 -186 151 -173 129 -189 -10
-8 -22 -14 -26 -14 -7 0 -101 106 -219 248 -42 50 -43 53 -24 67 10 8 22 15
25 15 3 0 54 -57 115 -127z m-63 -80 c74 -88 122 -152 117 -158 -5 -5 -21 -17
-37 -27 l-28 -16 -127 151 -127 152 27 22 c15 13 32 23 38 23 7 0 68 -66 137
-147z m-104 -75 c119 -143 124 -151 105 -165 -50 -38 -45 -41 -178 120 l-126
152 27 22 c16 13 33 23 38 22 6 0 66 -68 134 -151z m846 4 c70 -79 125 -145
123 -147 -2 -1 -30 27 -63 65 -33 37 -94 104 -135 150 -41 46 -70 81 -63 79 7
-2 69 -69 138 -147z m-41 -31 c135 -149 136 -150 114 -165 -12 -9 -26 -16 -30
-16 -4 0 -66 66 -138 148 -131 147 -131 147 -109 165 11 9 23 17 24 17 2 0 65
-67 139 -149z m-83 -61 l128 -145 -27 -22 c-15 -13 -32 -23 -38 -23 -10 0
-264 287 -264 299 0 9 53 41 64 38 4 -2 66 -68 137 -147z m-112 -60 c67 -78
124 -147 127 -154 4 -12 -51 -56 -69 -56 -9 0 -257 287 -257 298 0 9 58 51 71
52 3 0 60 -63 128 -140z m-105 -90 c124 -144 125 -145 104 -163 -12 -10 -26
-16 -32 -14 -5 2 -66 70 -134 151 -117 138 -123 148 -106 161 11 8 24 14 31
12 7 -1 68 -67 137 -147z m4 -168 c19 -23 33 -44 31 -45 -54 -41 -71 -49 -83
-36 -7 8 -59 70 -116 139 -57 69 -110 132 -117 142 -13 14 -10 19 23 41 l37
26 95 -112 c52 -62 111 -131 130 -155z m-202 36 l127 -152 -29 -23 c-16 -12
-32 -23 -36 -23 -3 0 -63 68 -133 152 l-127 152 29 23 c15 13 31 23 35 23 4 0
64 -68 134 -152z m774 107 c19 -19 32 -35 29 -35 -3 0 -20 16 -39 35 -19 19
-32 35 -29 35 3 0 20 -16 39 -35z m76 -155 c86 -96 166 -185 177 -198 l21 -22
-25 -18 c-13 -9 -27 -17 -31 -17 -4 0 -87 90 -183 199 l-176 200 23 18 c13 10
26 17 30 15 4 -1 77 -81 164 -177z m-80 -72 c93 -105 172 -197 177 -204 4 -8
-6 -20 -29 -35 l-37 -22 -58 64 c-41 45 -58 72 -59 92 0 57 -58 127 -104 127
-20 0 -55 32 -111 98 -19 23 -19 23 10 47 17 13 32 24 36 25 3 0 81 -86 175
-192z m79 142 c10 -11 16 -20 13 -20 -3 0 -13 9 -23 20 -10 11 -16 20 -13 20
3 0 13 -9 23 -20z m-303 -157 l-36 -34 -48 53 c-26 29 -47 56 -48 59 0 4 17
18 38 32 l37 26 47 -51 47 -50 -37 -35z m-95 -28 c28 -33 53 -73 57 -89 8 -32
66 -96 88 -96 8 0 34 -24 59 -52 78 -94 75 -87 48 -106 -13 -9 -27 -17 -30
-17 -8 0 -352 406 -347 409 41 31 53 35 63 23 7 -6 34 -39 62 -72z m-100 -47
c33 -40 110 -133 171 -205 62 -73 112 -134 112 -137 0 -2 -17 -15 -38 -29
l-39 -25 -159 191 c-87 105 -164 198 -171 207 -10 15 -7 21 25 44 20 14 37 26
38 26 1 0 28 -33 61 -72z m-3 -207 c91 -110 166 -204 166 -210 0 -5 -13 -19
-29 -30 l-29 -21 -172 206 -172 206 28 24 c16 13 32 23 36 24 3 0 81 -90 172
-199z m496 10 c0 -7 -67 -51 -78 -51 -4 0 -29 24 -55 54 -41 48 -45 55 -29 60
11 4 29 17 42 30 l22 25 49 -56 c27 -31 49 -59 49 -62z m389 -66 c72 -80 131
-149 131 -153 0 -4 -13 -15 -28 -24 l-29 -17 -131 147 -131 147 27 22 c15 13
28 23 28 23 1 0 61 -65 133 -145z m-109 -47 c58 -66 115 -132 127 -148 l23
-28 -38 -25 -38 -25 -132 151 -131 151 32 22 c18 13 37 23 42 23 6 0 57 -55
115 -121z m-96 -92 c69 -80 126 -148 126 -153 0 -8 -34 -37 -67 -56 -7 -5 -59
49 -137 140 -69 80 -126 149 -126 153 0 5 70 60 76 60 1 0 58 -65 128 -144z
m-100 -106 l116 -134 -31 -20 c-37 -23 -22 -35 -178 149 l-111 130 27 22 c33
27 15 42 177 -147z m-110 -47 c69 -82 126 -150 126 -153 0 -3 -17 -16 -37 -29
-24 -15 -41 -20 -49 -15 -17 12 -244 285 -244 293 0 7 61 49 72 50 4 1 63 -65
132 -146z m825 -163 c191 -213 209 -236 193 -248 -49 -38 -39 -45 -261 205
l-211 238 26 23 c14 13 30 22 34 20 4 -2 102 -109 219 -238z m-948 93 c63 -75
118 -142 122 -150 9 -14 -27 -52 -50 -53 -12 0 -253 283 -253 298 0 11 40 41
56 41 6 1 62 -60 125 -136z m821 -129 c101 -114 195 -222 210 -239 l28 -33
-42 -27 -41 -28 -26 31 c-81 94 -99 120 -105 146 -11 45 -34 73 -79 94 -28 13
-70 52 -125 115 -45 52 -82 97 -82 100 0 6 62 47 72 47 4 0 89 -93 190 -206z
m-166 -64 c-15 -9 -33 -25 -40 -36 -8 -10 -16 -17 -19 -14 -73 82 -157 183
-157 188 0 4 19 19 41 33 l42 27 79 -90 80 -91 -26 -17z m-157 2 c59 -69 91
-115 95 -137 8 -39 45 -82 85 -96 34 -12 135 -124 128 -142 -2 -7 -17 -19 -31
-27 -23 -12 -28 -12 -40 1 -7 8 -100 117 -205 242 l-192 228 23 19 c13 11 29
19 36 17 6 -1 52 -48 101 -105z m15 -200 c108 -128 196 -237 196 -241 0 -5
-18 -20 -40 -35 l-39 -26 -201 241 c-110 132 -200 244 -200 249 0 14 73 61 81
52 3 -4 95 -112 203 -240z m-115 -87 c105 -126 191 -232 191 -236 0 -14 -61
-52 -69 -43 -4 5 -97 116 -206 248 -150 180 -195 240 -184 247 8 4 23 14 34
23 25 18 0 43 234 -239z m495 59 l49 -56 -29 -24 c-51 -42 -62 -41 -110 12
-24 27 -43 52 -44 56 0 4 9 10 20 13 11 4 28 17 36 31 9 13 19 24 23 24 3 0
28 -25 55 -56z m403 -61 c44 -49 96 -107 116 -130 l38 -41 -37 -22 -36 -23
-23 24 c-12 13 -64 71 -115 129 l-92 105 29 22 c15 13 31 23 34 23 3 0 42 -39
86 -87z m-68 -110 l113 -128 -33 -27 c-18 -16 -38 -28 -44 -28 -6 0 -49 44
-95 97 -47 54 -98 112 -113 130 l-28 32 38 25 c21 14 40 26 44 26 3 0 56 -57
118 -127z m-120 -77 c58 -67 106 -126 108 -131 1 -6 -16 -23 -38 -38 -31 -22
-43 -26 -53 -17 -27 22 -211 240 -211 250 0 11 65 59 80 59 6 0 57 -55 114
-123z m-175 -31 c31 -36 81 -94 111 -129 l56 -64 -37 -22 c-42 -27 -25 -39
-156 115 -108 128 -106 124 -77 146 13 10 29 19 35 19 6 0 37 -29 68 -65z
m-40 -144 c53 -63 96 -117 96 -120 0 -6 -68 -51 -82 -54 -4 -1 -56 57 -117
129 l-109 132 41 30 c50 36 33 48 171 -117z m776 -51 c158 -175 158 -175 137
-193 -53 -43 -45 -48 -215 145 l-160 182 32 23 c17 12 35 21 40 20 4 -2 79
-81 166 -177z m-905 -23 c100 -121 106 -129 88 -143 -49 -39 -45 -41 -162 99
l-111 132 28 23 c15 12 32 21 38 20 6 -2 60 -61 119 -131z m795 -49 l161 -181
-45 -29 -45 -30 -38 43 c-50 55 -58 67 -72 111 -13 38 -61 88 -86 88 -13 0
-115 107 -115 122 0 6 69 58 77 58 1 0 74 -82 163 -182z m-242 -29 l-42 -39
-42 47 c-24 27 -43 51 -44 55 0 4 19 21 43 37 l42 30 42 -45 42 -45 -41 -40z
m-108 -24 c29 -35 59 -81 66 -101 15 -43 48 -80 79 -88 12 -3 43 -30 68 -60
l47 -54 -39 -25 -38 -25 -157 185 -156 186 32 23 c18 13 36 23 39 24 3 0 29
-29 59 -65z m4 -202 c75 -89 136 -166 136 -171 0 -5 -19 -22 -41 -37 -40 -26
-42 -26 -59 -8 -16 17 -249 298 -278 335 -12 15 -8 21 29 48 41 29 44 30 60
13 9 -10 78 -91 153 -180z m-134 -75 l152 -182 -29 -23 c-15 -13 -32 -21 -38
-20 -5 2 -77 84 -159 182 l-150 178 28 23 c15 13 31 24 36 24 4 0 77 -82 160
-182z m915 40 c61 -67 113 -127 117 -133 5 -8 -7 -22 -31 -38 l-38 -25 -114
130 c-63 71 -115 133 -116 136 -3 6 55 50 67 51 3 1 55 -54 115 -121z m-432
66 l37 -42 -47 -31 -48 -31 -34 34 -34 34 39 40 c21 21 42 38 45 38 3 -1 22
-20 42 -42z m332 -155 l117 -132 -47 -30 c-39 -26 -48 -28 -59 -16 -60 66
-216 249 -216 253 0 7 72 56 82 56 3 0 59 -59 123 -131z m-126 -81 c61 -70
111 -131 111 -135 0 -8 -81 -63 -92 -63 -6 0 -228 257 -228 264 0 7 84 65 91
63 4 -1 57 -59 118 -129z m-129 -93 l111 -130 -32 -27 c-18 -16 -36 -28 -40
-28 -8 0 -229 262 -229 271 0 9 63 49 72 46 3 -1 57 -60 118 -132z m-124 -62
c55 -65 105 -125 111 -134 11 -13 5 -20 -34 -48 -25 -18 -49 -29 -53 -24 -76
88 -210 254 -212 261 -3 12 60 61 78 62 6 0 56 -53 110 -117z m814 -48 c79
-88 152 -169 162 -181 18 -21 18 -21 -24 -49 l-42 -28 -25 29 c-14 17 -87 99
-161 183 -74 84 -136 156 -137 159 -4 9 59 52 73 49 5 -1 75 -74 154 -162z
m53 -284 c-4 -4 -25 -19 -45 -34 l-37 -27 -40 42 c-22 24 -52 66 -67 94 -15
31 -39 59 -58 70 -31 18 -155 151 -156 166 0 4 19 20 42 36 l42 29 164 -185
c90 -101 160 -188 155 -191z m-983 233 c107 -130 112 -138 94 -151 -50 -38
-46 -40 -161 98 -59 73 -108 136 -108 140 0 7 52 48 61 49 0 0 52 -61 114
-136z m627 -77 c-12 -4 -34 -20 -50 -35 -17 -16 -31 -22 -36 -16 -5 5 -30 33
-55 63 l-45 54 47 34 47 34 57 -63 c56 -60 57 -63 35 -71z m-122 -72 c18 -22
35 -53 39 -70 12 -48 35 -76 80 -96 23 -10 56 -36 74 -58 l31 -39 -41 -27
c-34 -22 -43 -25 -53 -13 -24 25 -291 343 -298 355 -5 7 7 22 30 38 l38 26 34
-38 c18 -21 48 -56 66 -78z m-59 -142 c83 -98 153 -183 157 -190 5 -7 -10 -24
-39 -44 -55 -37 -29 -57 -209 161 -71 85 -135 162 -142 172 -13 14 -9 19 29
47 24 16 45 30 49 31 3 0 73 -80 155 -177z m-121 -100 l155 -187 -28 -23 c-15
-12 -31 -21 -37 -19 -5 1 -79 85 -164 186 l-153 184 28 23 c16 13 32 23 36 23
4 0 77 -84 163 -187z m970 37 c70 -78 126 -142 124 -143 -2 -2 -21 -15 -41
-30 -20 -15 -38 -27 -41 -27 -2 0 -46 48 -98 108 -51 59 -109 124 -127 144
l-33 37 38 25 c21 14 41 26 44 26 4 0 64 -63 134 -140z m-465 78 c16 -18 30
-36 30 -39 0 -3 -21 -20 -46 -38 l-46 -32 -28 26 -28 27 42 43 c22 24 42 44
44 44 1 1 16 -14 32 -31z m332 -145 c62 -71 119 -135 125 -144 11 -13 5 -21
-34 -48 -44 -31 -46 -32 -63 -14 -61 64 -230 264 -230 271 0 9 68 60 82 61 4
1 58 -56 120 -126z m-127 -90 c152 -176 143 -156 87 -192 -27 -17 -51 -31 -54
-31 -6 0 -228 255 -241 277 -7 11 66 72 88 72 6 1 60 -56 120 -126z m-129
-103 c65 -77 120 -143 121 -147 2 -5 -16 -20 -38 -34 l-42 -27 -111 132 c-61
72 -117 138 -124 147 -10 14 -7 20 25 42 21 14 41 26 44 26 3 1 60 -62 125
-139z m-116 -86 l123 -145 -23 -17 c-13 -9 -36 -25 -51 -35 l-26 -17 -117 140
c-64 77 -117 144 -118 149 -3 8 69 69 83 70 4 1 62 -64 129 -145z m765 54 c39
-44 80 -92 92 -108 l23 -28 -42 -28 -41 -29 -49 55 c-27 30 -72 81 -99 112
l-50 57 38 25 c21 14 42 26 48 25 5 0 42 -36 80 -81z m-896 -147 l120 -144
-31 -24 c-39 -28 -32 -34 -175 140 l-107 130 30 23 c16 13 32 23 36 21 4 -1
61 -67 127 -146z m777 62 c44 -49 81 -90 84 -93 33 -32 32 -38 -15 -70 -25
-17 -49 -30 -54 -28 -4 2 -41 41 -81 88 -41 47 -82 95 -93 106 -18 22 -18 22
25 52 24 17 46 31 49 32 4 0 42 -39 85 -87z m-112 -112 l96 -110 -42 -29 c-24
-16 -48 -32 -55 -35 -7 -5 -49 36 -107 105 l-96 111 48 33 c26 18 50 33 53 33
3 1 50 -48 103 -108z m-154 -78 c46 -54 89 -105 97 -114 12 -14 8 -19 -27 -43
-22 -14 -43 -26 -47 -26 -5 0 -50 49 -101 109 l-92 109 42 31 c23 17 43 31 44
31 0 0 38 -44 84 -97z m626 0 c37 -43 79 -90 92 -105 l24 -26 -42 -28 -43 -29
-64 70 c-35 39 -77 86 -93 106 l-30 36 38 26 c20 14 40 26 43 26 4 1 37 -34
75 -76z m-738 -93 c45 -54 85 -105 88 -113 4 -12 -55 -61 -85 -69 -8 -3 -191
205 -191 217 0 7 84 65 94 64 6 0 48 -45 94 -99z m680 -58 c30 -34 53 -64 51
-66 -2 -1 -25 -17 -51 -34 l-47 -32 -92 106 c-50 58 -88 109 -83 113 5 5 27
20 49 35 l40 27 39 -43 c21 -24 63 -71 94 -106z m-808 -46 l91 -109 -33 -23
-33 -23 -35 38 c-19 21 -63 72 -97 114 l-63 75 33 21 c17 11 35 20 39 18 4 -1
48 -51 98 -111z m634 -1 c47 -55 86 -103 86 -107 0 -8 -85 -68 -97 -68 -10 0
-171 183 -175 199 -3 12 82 82 93 78 4 -1 45 -47 93 -102z m-139 -100 c47 -54
85 -101 85 -104 0 -7 -75 -61 -84 -61 -7 0 -176 202 -176 210 0 10 73 61 83
57 4 -1 46 -47 92 -102z m638 -4 l97 -109 -41 -33 c-22 -17 -44 -28 -48 -23
-87 96 -181 207 -181 214 0 7 67 60 75 60 1 0 45 -49 98 -109z m-782 -58 c124
-146 116 -127 63 -163 -25 -17 -50 -32 -54 -33 -8 -2 -180 202 -180 212 0 4
82 64 96 70 1 1 35 -38 75 -86z m664 -25 l99 -111 -35 -29 c-64 -55 -58 -58
-163 64 -53 62 -96 114 -96 117 1 4 90 70 96 71 0 0 45 -50 99 -112z m-780
-94 c48 -58 86 -106 84 -108 -2 -1 -18 -12 -35 -24 l-32 -22 -86 104 c-47 58
-86 108 -86 113 0 8 49 42 61 43 3 0 46 -47 94 -106z m636 9 c123 -142 117
-125 60 -167 -27 -20 -51 -36 -54 -36 -10 0 -197 224 -195 231 4 12 82 68 94
69 6 0 49 -44 95 -97z m-122 -123 c50 -58 91 -107 91 -110 -1 -3 -20 -19 -44
-37 l-44 -32 -102 120 c-56 66 -100 122 -97 125 2 3 22 18 43 34 30 22 42 26
51 17 6 -7 53 -59 102 -117z m616 25 l49 -57 -24 -19 c-55 -43 -53 -44 -124
35 l-66 74 42 31 c41 31 43 31 58 12 8 -10 37 -44 65 -76z m-751 -104 c53 -62
96 -117 96 -121 0 -10 -71 -67 -88 -72 -9 -3 -212 228 -212 242 0 7 94 69 102
67 4 -1 50 -53 102 -116z m604 58 c90 -101 88 -90 30 -134 l-51 -38 -21 25
c-12 14 -40 48 -64 76 l-43 51 47 35 c26 20 49 36 51 36 3 0 26 -23 51 -51z
m-737 -161 l103 -121 -30 -23 c-16 -13 -32 -24 -36 -24 -8 0 -208 239 -208
249 0 7 50 40 62 41 4 0 53 -55 109 -122z m619 42 c69 -78 69 -77 -2 -126
l-41 -29 -54 60 c-80 89 -79 86 -25 128 26 19 50 36 53 36 3 1 34 -31 69 -69z
m499 -99 c50 -57 91 -107 91 -112 0 -15 -71 -62 -80 -53 -30 31 -220 250 -220
254 0 3 17 17 38 32 l37 27 21 -22 c12 -12 63 -69 113 -126z m-613 -37 c19
-23 34 -43 34 -46 0 -2 -20 -19 -44 -36 l-45 -32 -61 71 c-34 39 -60 75 -58
79 2 5 21 23 43 39 l40 31 28 -33 c16 -17 44 -50 63 -73z m483 -30 c61 -69
111 -128 111 -132 -1 -9 -87 -72 -98 -72 -14 0 -78 81 -87 110 -8 29 -53 80
-70 80 -6 0 -26 15 -44 34 l-32 33 48 36 c26 20 51 36 54 36 4 1 57 -56 118
-125z m-631 -37 l61 -74 -52 -38 -51 -38 -44 49 c-24 27 -52 61 -63 76 l-19
27 46 35 c26 20 50 36 54 36 4 0 35 -33 68 -73z m396 48 c3 -10 -5 -20 -24
-30 -16 -8 -37 -30 -46 -47 l-17 -32 -18 23 -19 24 52 38 c58 43 63 45 72 24z
m-535 -149 l61 -74 -34 -25 -33 -25 -63 75 -63 75 29 24 c16 13 32 23 36 24 4
0 34 -33 67 -74z m452 -37 c5 -14 41 -54 79 -88 39 -34 70 -68 70 -74 -1 -12
-89 -82 -94 -75 -2 1 -52 62 -113 134 l-111 131 46 36 47 36 33 -37 c18 -20
38 -49 43 -63z m705 -51 c54 -62 114 -129 132 -149 l32 -37 -39 -31 -39 -31
-103 117 c-57 65 -119 134 -137 155 l-33 37 38 25 c21 14 40 26 44 26 3 0 51
-51 105 -112z m-790 -82 l108 -128 -44 -39 c-25 -21 -50 -39 -55 -39 -17 0
-228 261 -219 270 21 21 90 69 95 67 4 -1 55 -60 115 -131z m374 74 c0 -4 -23
-25 -51 -46 l-52 -38 -18 23 c-25 31 -24 34 12 50 17 8 39 27 48 43 l16 29 23
-26 c12 -14 22 -30 22 -35z m330 -105 c68 -78 126 -147 128 -153 1 -5 -20 -26
-48 -47 l-51 -37 -42 48 c-23 26 -49 64 -58 84 -9 21 -29 46 -45 56 -31 21
-114 105 -114 115 0 7 91 79 100 78 3 0 61 -65 130 -144z m-817 -102 c42 -51
77 -97 77 -102 0 -5 -13 -19 -29 -31 l-30 -21 -110 133 c-61 72 -111 135 -111
139 0 4 14 16 31 27 l31 19 32 -36 c18 -20 67 -78 109 -128z m579 111 l27 -27
-32 -16 c-17 -9 -41 -30 -53 -48 l-21 -32 -31 38 -30 38 46 36 c26 20 51 36
56 36 6 1 22 -11 38 -25z m-72 -203 c10 -20 41 -55 68 -79 28 -23 60 -55 71
-70 l20 -29 -49 -36 -49 -36 -82 97 c-46 53 -105 122 -131 153 l-48 57 47 36
48 36 43 -47 c24 -25 52 -63 62 -82z m729 -71 c50 -57 91 -107 91 -110 0 -3
-16 -18 -35 -33 l-36 -28 -43 48 c-121 135 -166 188 -166 194 0 3 17 18 37 32
30 21 40 24 49 14 7 -6 53 -59 103 -117z m-834 -44 c65 -79 121 -148 123 -154
1 -5 -20 -27 -48 -47 -44 -32 -54 -36 -65 -24 -38 40 -235 282 -235 289 0 10
89 80 99 79 3 0 60 -65 126 -143z m405 50 c0 -6 -25 -28 -54 -48 l-54 -38 -27
32 -26 31 29 13 c17 7 40 26 53 43 l23 31 28 -27 c15 -15 28 -32 28 -37z m309
-80 c56 -63 101 -118 101 -123 -1 -4 -23 -25 -51 -47 l-50 -38 -42 48 c-23 27
-72 83 -109 124 l-67 77 47 36 c26 19 52 36 59 36 6 1 57 -50 112 -113z m-849
-86 c66 -79 120 -147 120 -150 0 -3 -14 -15 -31 -27 l-32 -21 -127 151 -128
152 26 23 c15 12 33 21 39 20 7 -2 67 -68 133 -148z m708 -20 c56 -65 102
-122 102 -127 0 -9 -92 -83 -103 -83 -7 0 -217 242 -217 250 1 6 103 79 110
79 3 0 51 -54 108 -119z m-162 -92 c48 -57 97 -113 108 -126 l21 -24 -35 -29
c-68 -57 -58 -61 -175 76 -59 69 -105 130 -103 135 3 10 79 69 89 70 4 0 46
-46 95 -102z m705 -49 l38 -46 -37 -30 -37 -30 -87 98 -88 97 38 31 37 31 48
-53 c27 -28 66 -73 88 -98z m-151 -38 l84 -94 -48 -43 c-26 -24 -51 -44 -55
-44 -4 0 -46 44 -93 98 l-86 98 51 42 c29 23 55 41 58 39 3 -1 43 -44 89 -96z
m-665 -41 l105 -125 -47 -42 c-27 -24 -52 -42 -58 -42 -10 0 -212 240 -217
257 -4 13 83 82 99 79 7 -1 60 -58 118 -127z m-135 -119 l103 -123 -29 -24
c-16 -13 -32 -23 -36 -24 -6 0 -221 255 -225 268 -2 4 12 17 29 29 26 18 35
20 44 10 6 -6 57 -68 114 -136z m640 73 c36 -42 74 -87 85 -101 l19 -26 -49
-44 c-27 -23 -52 -43 -56 -43 -3 0 -45 46 -94 102 l-88 101 29 21 c16 12 40
31 54 43 14 12 27 22 30 22 3 0 34 -34 70 -75z m444 -26 c20 -23 33 -45 29
-49 -5 -3 -25 -12 -47 -19 -37 -12 -40 -11 -68 18 l-31 30 34 31 c19 17 37 31
41 31 3 0 23 -19 42 -42z m-565 -118 c44 -52 81 -98 81 -102 0 -12 -94 -88
-100 -81 -3 5 -44 53 -90 107 l-84 99 44 39 c25 21 50 37 56 36 6 -2 48 -46
93 -98z m446 44 c9 -14 15 -27 13 -28 -2 -2 -29 -16 -60 -33 -50 -27 -58 -29
-71 -15 -14 13 -10 20 36 58 28 24 54 44 58 44 4 0 14 -12 24 -26z m-565 -169
l74 -88 -48 -43 c-26 -24 -52 -44 -57 -44 -11 0 -174 197 -174 211 0 5 23 27
50 49 48 38 51 39 65 21 8 -11 49 -58 90 -106z m415 58 c0 -6 -23 -29 -51 -51
-36 -28 -55 -37 -62 -30 -7 7 5 24 41 54 48 42 72 51 72 27z m-568 -159 c48
-59 86 -109 83 -113 -2 -3 -16 -16 -31 -28 l-26 -22 -93 111 -93 111 29 24
c16 12 32 23 36 23 4 0 46 -48 95 -106z m426 49 c3 -5 -15 -30 -39 -58 -40
-46 -44 -49 -59 -34 -15 15 -13 19 31 58 47 41 59 47 67 34z m-149 -202 c-21
-34 -41 -61 -44 -61 -3 0 -17 15 -32 34 l-28 35 52 45 c52 45 53 46 72 27 19
-19 19 -20 -20 -80z m-95 -62 l33 -39 -19 -45 -20 -45 -39 47 c-60 71 -60 72
-28 99 16 13 31 23 34 23 3 0 20 -18 39 -40z m2584 -1528 l437 -486 -57 -52
c-32 -29 -61 -52 -65 -53 -4 0 -143 154 -309 343 -167 188 -305 344 -308 347
-6 5 -277 314 -309 352 -13 16 -11 26 19 93 l34 76 60 -67 c33 -37 257 -286
498 -553z m-188 -91 c235 -267 437 -495 449 -508 l21 -23 -60 -52 c-32 -29
-62 -52 -65 -52 -7 0 -24 19 -558 632 l-342 393 47 65 c45 62 48 65 64 48 9
-10 209 -236 444 -503z m-107 -185 l419 -480 -55 -57 c-31 -32 -59 -58 -63
-58 -3 0 -205 232 -448 515 l-442 515 58 54 58 54 27 -31 c14 -18 215 -248
446 -512z m-582 362 c29 -31 737 -856 840 -978 12 -13 5 -23 -45 -73 l-58 -58
-101 119 c-124 146 -700 829 -762 903 -25 29 -40 55 -34 57 5 2 32 19 59 38
28 18 53 34 56 34 4 1 24 -18 45 -42z m-46 -244 c128 -153 358 -424 432 -508
19 -22 258 -309 297 -357 l23 -29 -53 -57 c-30 -31 -56 -58 -59 -60 -3 -1 -46
47 -95 107 -50 61 -95 110 -102 110 -6 1 -22 18 -35 39 -12 20 -37 53 -54 72
-17 19 -56 67 -85 105 -40 53 -445 544 -565 686 -12 13 -5 19 59 46 39 17 74
31 77 31 3 1 75 -83 160 -185z m2058 7 c29 -95 94 -295 125 -381 l35 -95 -47
-50 c-72 -75 -257 -291 -312 -364 -27 -36 -84 -132 -126 -215 -91 -178 -146
-241 -267 -312 -132 -76 -221 -138 -411 -286 -182 -142 -291 -232 -400 -331
l-61 -54 -75 36 c-108 53 -278 121 -393 158 -16 5 -31 14 -33 20 -4 11 121
204 207 321 28 37 65 88 83 112 17 24 52 66 77 95 25 28 62 71 82 96 20 25 55
65 78 89 46 51 39 52 108 -34 l39 -49 -48 -64 c-57 -73 -64 -112 -24 -138 34
-22 56 -12 106 52 l44 55 48 -53 c43 -48 47 -56 42 -88 -13 -71 2 -107 56
-135 61 -32 139 21 139 94 0 21 -5 42 -10 47 -7 7 6 9 44 6 51 -4 57 -2 86 26
23 23 30 39 30 69 0 22 -5 44 -11 50 -8 8 2 9 36 6 55 -7 90 9 111 49 16 31
19 84 4 93 -19 12 -11 26 9 15 48 -25 110 -4 137 46 15 28 16 40 8 73 -11 38
-10 40 9 29 28 -14 86 -3 113 23 28 27 39 74 25 111 -10 26 -9 26 19 16 37
-12 94 5 115 35 17 25 20 89 5 118 -17 31 -68 52 -110 45 -35 -5 -39 -3 -80
45 l-42 51 41 39 c43 41 49 62 28 91 -26 34 -60 32 -110 -6 l-46 -35 -46 55
-47 55 28 22 c16 12 58 47 94 77 73 63 289 223 395 294 77 51 70 53 93 -24z
m-568 -480 l18 -26 -62 -51 -63 -52 -35 37 c-65 70 -65 64 3 121 l62 52 29
-28 c17 -15 38 -39 48 -53z m-201 -213 l-61 -58 -48 53 -48 53 61 57 62 57 47
-52 48 -52 -61 -58z m355 42 c37 -41 44 -54 36 -69 -13 -24 -13 -66 0 -91 10
-17 8 -18 -17 -8 -15 5 -43 7 -63 4 -33 -5 -38 -2 -82 49 -27 30 -48 59 -48
64 0 11 108 102 120 102 5 0 29 -23 54 -51z m-454 -127 c0 -3 -25 -32 -56 -63
l-57 -57 -49 56 -50 57 63 56 62 56 44 -49 c24 -27 43 -52 43 -56z m299 -15
c42 -48 49 -62 41 -77 -13 -24 -13 -66 1 -92 10 -18 9 -19 -13 -12 -12 5 -41
8 -63 6 -37 -2 -44 2 -80 45 -72 85 -72 75 -7 137 31 31 60 55 64 53 4 -1 29
-28 57 -60z m-487 -81 l47 -53 -57 -63 -57 -63 -48 56 c-26 30 -47 59 -47 63
0 10 101 114 110 114 4 0 27 -24 52 -54z m331 -60 c55 -63 56 -64 45 -100 -8
-26 -9 -46 -2 -64 l10 -27 -58 2 c-63 1 -56 -4 -157 116 -13 16 -10 23 44 77
33 33 60 60 60 60 1 0 27 -29 58 -64z m-479 -85 c25 -30 46 -60 46 -65 -1 -6
-24 -37 -53 -70 l-53 -58 -51 63 -52 62 57 63 c31 34 58 61 58 61 1 -1 22 -26
48 -56z m330 -66 c56 -63 57 -65 45 -98 -8 -24 -9 -42 -2 -63 l10 -29 -58 1
-57 1 -55 64 -55 63 56 63 c32 34 58 62 58 62 1 1 27 -28 58 -64z m-101 -235
c-9 -34 -9 -70 1 -98 7 -22 6 -23 -14 -12 -13 7 -39 10 -60 7 -35 -4 -39 -2
-83 53 -26 32 -47 61 -47 65 0 4 23 34 52 67 l52 61 53 -59 c44 -49 52 -63 46
-84z"/>
<path d="M3827 17303 c-16 -16 -5 -53 21 -71 48 -33 96 -47 163 -47 70 0 99
13 99 46 0 26 -16 33 -89 33 -48 1 -78 7 -109 24 -43 22 -73 28 -85 15z"/>
<path d="M3345 17281 c-13 -23 4 -59 34 -69 37 -13 108 -77 127 -114 12 -23
21 -29 42 -26 63 7 23 106 -70 174 -51 38 -120 56 -133 35z"/>
<path d="M3792 16858 c-16 -16 -15 -43 1 -55 6 -6 28 -13 48 -17 21 -4 53 -18
73 -31 44 -30 72 -32 86 -6 14 27 6 42 -36 69 -70 46 -148 64 -172 40z"/>
<path d="M4222 16798 c-7 -7 -12 -22 -12 -34 0 -43 115 -103 196 -104 60 0 87
16 82 51 -3 21 -9 24 -48 27 -80 4 -107 12 -145 42 -41 33 -55 36 -73 18z"/>
<path d="M4286 16434 c-12 -32 -5 -44 37 -65 23 -12 61 -39 83 -61 49 -47 87
-50 92 -7 8 70 -189 193 -212 133z"/>
<path d="M4671 16286 c-32 -38 27 -86 106 -86 38 0 73 19 73 39 0 21 -30 40
-70 44 -25 3 -57 8 -71 12 -17 4 -29 2 -38 -9z"/>
<path d="M10018 17026 c-24 -17 -23 -43 1 -56 11 -5 71 -10 134 -10 112 0 326
-19 457 -40 164 -27 202 -35 310 -62 597 -153 987 -445 1125 -843 74 -214 86
-500 30 -760 -22 -104 -69 -272 -104 -370 -29 -80 -75 -246 -91 -320 -6 -33
-14 -69 -16 -80 -3 -11 -11 -74 -19 -140 -51 -417 26 -784 247 -1174 52 -92
206 -297 314 -419 61 -70 235 -248 384 -397 403 -400 505 -529 569 -724 30
-92 29 -221 -3 -323 -22 -73 -23 -78 -6 -93 38 -34 60 -6 90 110 52 209 -2
405 -177 640 -40 54 -203 228 -407 434 -188 189 -346 348 -351 355 -9 9 -147
174 -194 231 -17 20 -102 145 -137 200 -61 97 -132 243 -173 357 -64 178 -91
343 -91 564 0 275 31 451 136 761 62 186 76 237 114 428 29 145 33 448 6 565
-90 401 -311 677 -706 879 -255 131 -528 211 -905 266 -86 12 -374 35 -445 34
-47 0 -82 -5 -92 -13z"/>
<path d="M13559 16007 c-27 -21 -29 -45 -14 -170 24 -197 40 -339 65 -572 6
-55 15 -136 20 -179 15 -120 15 -121 -14 -103 -89 59 -294 76 -416 36 -119
-39 -211 -113 -262 -212 -35 -67 -39 -180 -8 -251 60 -141 241 -236 425 -223
183 13 331 101 399 237 41 81 41 107 1 445 -9 72 -20 175 -26 230 -6 55 -14
134 -19 175 -20 181 -31 302 -28 311 5 16 125 -78 159 -124 17 -23 47 -74 65
-114 26 -58 39 -74 60 -79 53 -13 85 27 65 83 -44 124 -94 187 -275 347 -37
33 -79 80 -94 105 -29 51 -49 70 -72 70 -8 0 -22 -5 -31 -12z"/>
<path d="M9529 14429 c-14 -28 3 -45 91 -90 169 -86 429 -276 537 -392 105
-113 196 -258 229 -366 21 -68 27 -187 14 -266 -6 -38 -15 -97 -20 -130 -48
-298 -58 -546 -27 -682 41 -178 105 -299 227 -427 109 -114 312 -264 382 -281
35 -9 55 17 40 50 -7 14 -16 25 -22 25 -26 0 -224 144 -304 220 -130 125 -186
215 -237 380 -21 67 -23 95 -23 270 0 107 5 227 12 265 65 394 66 396 53 483
-29 200 -118 361 -306 547 -129 129 -335 277 -516 370 -99 51 -114 54 -130 24z"/>
<path d="M8898 14016 c-14 -7 -24 -22 -26 -38 -3 -27 0 -32 256 -381 126 -172
128 -177 75 -177 -45 0 -147 -57 -197 -110 -111 -118 -127 -266 -41 -368 66
-78 214 -97 331 -42 153 74 243 238 200 366 -9 27 -55 101 -101 164 -47 63
-131 178 -187 255 -228 314 -243 333 -265 338 -12 2 -33 -1 -45 -7z"/>
<path d="M16871 13432 c-20 -16 -42 -65 -182 -402 -34 -80 -67 -158 -74 -175
-7 -16 -21 -50 -32 -75 -11 -25 -32 -76 -48 -115 -16 -38 -32 -74 -36 -79 -5
-5 -26 7 -48 27 -163 147 -404 122 -477 -51 -29 -70 0 -180 66 -249 66 -70
200 -121 285 -108 52 7 134 46 162 76 12 13 36 58 53 99 18 41 40 93 50 115
10 22 34 81 55 130 20 50 43 105 51 123 8 17 20 47 28 65 8 17 31 73 51 122
73 179 94 217 112 211 17 -4 97 -23 201 -46 23 -6 61 -14 85 -20 92 -21 274
-62 312 -70 46 -10 132 -30 157 -37 16 -4 16 -7 -1 -51 -29 -72 -121 -292
-141 -338 -11 -22 -28 -63 -39 -90 -10 -27 -27 -66 -36 -87 l-16 -39 -43 40
c-69 64 -160 102 -243 102 -96 0 -208 -71 -234 -148 -17 -52 -6 -144 25 -196
44 -76 115 -127 211 -152 92 -25 166 -13 244 39 44 30 73 81 133 232 23 59
182 437 221 525 8 19 32 76 52 125 20 50 50 120 66 157 36 82 37 122 7 142
-13 7 -68 23 -123 35 -55 12 -119 26 -142 31 -151 34 -200 45 -338 75 -129 28
-175 38 -245 54 -92 20 -108 21 -129 3z"/>
<path d="M2123 11643 c-24 -9 -13 -44 50 -171 161 -325 335 -553 542 -714 162
-127 399 -235 605 -276 30 -6 78 -16 105 -21 236 -47 672 -47 1030 0 275 36
277 36 585 93 74 13 169 30 210 38 102 18 567 18 670 0 102 -18 255 -52 310
-68 25 -8 61 -19 80 -25 19 -6 44 -14 55 -18 11 -5 52 -21 90 -37 116 -46 305
-146 427 -227 163 -108 311 -232 468 -393 210 -215 318 -357 497 -652 20 -33
57 -26 61 11 4 30 -15 66 -114 218 -123 190 -219 305 -423 509 -247 247 -440
388 -716 525 -194 96 -321 143 -515 190 -321 78 -682 85 -1025 20 -44 -8 -102
-19 -130 -25 -103 -19 -413 -68 -500 -79 -49 -6 -135 -16 -190 -23 -138 -16
-647 -17 -750 0 -204 33 -251 44 -400 94 -183 61 -360 172 -506 318 -164 163
-265 311 -409 600 -61 121 -69 129 -107 113z"/>
<path d="M17190 11398 c-5 -7 -38 -69 -73 -138 -156 -313 -359 -514 -681 -675
-82 -41 -156 -75 -166 -75 -9 0 -20 -3 -24 -7 -8 -9 -58 -26 -181 -64 -121
-37 -200 -59 -540 -148 -36 -10 -212 -68 -240 -80 -184 -77 -346 -185 -422
-280 -53 -68 -108 -162 -129 -225 -18 -52 -7 -79 29 -74 22 3 20 1 71 108 107
225 312 361 721 479 75 21 174 48 325 87 104 27 253 71 285 85 11 4 41 15 68
23 160 52 372 162 505 262 96 73 245 222 306 308 42 59 156 250 156 262 0 2
11 28 25 58 28 62 30 77 13 94 -15 15 -34 15 -48 0z"/>
<path d="M11565 10990 c-190 -31 -239 -54 -214 -101 8 -16 17 -20 37 -15 15 4
45 11 67 17 131 32 420 37 520 8 141 -39 189 -56 260 -90 44 -21 94 -47 110
-59 36 -24 61 -26 73 -4 21 38 -4 60 -158 135 -84 42 -231 87 -336 104 -99 16
-275 18 -359 5z"/>
<path d="M16714 9693 c-91 -100 -131 -143 -286 -307 l-55 -59 -25 55 c-46 99
-129 171 -236 203 -58 18 -92 19 -146 3 -68 -20 -109 -52 -140 -107 -25 -47
-28 -60 -24 -129 4 -91 30 -149 92 -213 101 -103 227 -142 337 -104 53 19 67
31 189 165 52 58 120 132 151 165 216 231 320 349 325 370 9 38 -12 65 -50 65
-30 0 -45 -12 -132 -107z"/>
<path d="M13174 9486 c-17 -70 209 -385 343 -477 54 -37 97 -37 101 1 2 20 -6
30 -41 52 -92 58 -232 225 -303 362 -14 28 -33 59 -42 69 -22 25 -50 22 -58
-7z"/>
<path d="M9396 9433 c-213 -228 -428 -549 -513 -768 -17 -44 -33 -87 -36 -95
-7 -24 12 -50 37 -50 21 0 28 11 52 73 33 88 95 214 140 285 19 29 34 55 34
57 0 6 51 80 129 185 50 69 186 236 219 269 34 34 44 59 32 80 -17 33 -36 25
-94 -36z"/>
<path d="M11741 9292 c-42 -9 -60 -34 -42 -56 11 -13 37 -16 140 -16 130 -1
197 -12 289 -49 82 -33 110 -26 98 23 -6 26 -66 54 -169 81 -65 17 -264 27
-316 17z"/>
<path d="M5400 9250 c-11 -11 -20 -30 -20 -42 0 -14 73 -94 231 -254 210 -211
229 -233 208 -239 -52 -14 -112 -51 -155 -93 -129 -129 -141 -322 -27 -423 64
-56 190 -64 288 -18 65 30 148 115 180 185 33 71 35 174 5 237 -28 59 -636
667 -668 667 -12 0 -31 -9 -42 -20z"/>
<path d="M12312 9138 c-23 -23 -11 -48 49 -98 62 -52 92 -62 103 -34 14 35 4
53 -56 97 -67 50 -77 54 -96 35z"/>
<path d="M8787 8375 c-24 -23 -97 -280 -97 -339 0 -19 -4 -38 -10 -41 -5 -3
-10 -17 -10 -30 0 -18 7 -26 25 -31 33 -8 55 11 55 48 0 16 7 53 16 81 8 29
20 70 26 92 19 70 31 109 44 148 18 47 17 52 -2 71 -19 20 -29 20 -47 1z"/>
<path d="M7020 8114 c-126 -16 -176 -27 -211 -45 l-26 -15 24 -18 c27 -20 53
-19 203 4 146 23 409 -4 502 -51 10 -5 26 -9 36 -9 10 0 22 -4 28 -9 5 -5 25
-12 46 -16 30 -6 38 -3 47 13 13 23 6 32 -27 32 -15 0 -26 7 -29 18 -5 20
-112 58 -223 81 -52 11 -240 32 -257 30 -4 -1 -55 -7 -113 -15z"/>
<path d="M6435 7915 c-436 -230 -599 -300 -815 -347 -133 -30 -467 -32 -615
-4 -142 26 -265 58 -399 104 -94 31 -120 37 -133 27 -11 -8 -14 -20 -10 -37 6
-23 22 -31 149 -71 207 -66 230 -72 443 -108 102 -18 421 -15 525 4 142 27
260 61 395 115 37 15 322 158 525 264 47 24 117 57 155 73 39 16 74 32 80 37
5 4 17 8 27 8 10 0 18 5 18 10 0 6 -37 10 -92 10 l-93 -1 -160 -84z"/>
<path d="M2928 7643 c-8 -10 -20 -31 -26 -48 -21 -60 -214 -561 -223 -580 -42
-92 -99 -257 -99 -285 0 -40 -49 -7 640 -429 74 -46 139 -87 144 -91 5 -5 -15
-31 -48 -60 -80 -74 -116 -153 -116 -254 0 -89 19 -135 74 -184 121 -106 325
-33 407 145 53 115 34 254 -45 319 -17 14 -130 87 -251 161 -121 74 -260 160
-310 191 -49 30 -116 70 -147 89 -32 19 -58 39 -58 45 0 15 280 731 291 742 4
5 24 -2 46 -15 91 -55 306 -187 400 -247 l103 -64 -60 -58 c-92 -92 -132 -200
-110 -305 40 -195 255 -241 408 -88 62 62 93 130 99 213 7 95 -10 146 -66 200
-26 25 -64 55 -86 66 -22 12 -114 67 -205 124 -91 56 -196 121 -235 145 -38
23 -137 84 -220 135 -270 167 -275 169 -307 133z"/>
<path d="M10787 7333 c-16 -15 -5 -57 29 -107 39 -59 59 -73 80 -55 23 19 16
49 -23 111 -36 55 -65 72 -86 51z"/>
<path d="M10972 7108 c-22 -22 -12 -46 36 -86 125 -105 306 -190 497 -233 80
-19 362 -19 430 0 151 40 179 58 151 97 -14 18 -16 18 -99 -4 -143 -37 -279
-46 -403 -27 -58 9 -133 25 -167 36 -100 32 -259 114 -338 174 -78 58 -88 62
-107 43z"/>
<path d="M16657 6993 c-13 -12 -7 -53 13 -98 11 -25 29 -65 40 -90 11 -25 20
-49 20 -53 0 -17 39 -44 55 -38 29 11 28 38 -5 120 -60 148 -70 166 -94 166
-13 0 -26 -3 -29 -7z"/>
<path d="M9762 6679 c3 -29 9 -34 83 -63 468 -190 789 -524 847 -881 10 -66
21 -85 49 -85 33 0 40 32 24 112 -62 299 -239 540 -545 742 -161 106 -370 206
-432 206 -27 0 -29 -3 -26 -31z"/>
<path d="M16825 6530 c-4 -11 0 -42 8 -68 72 -233 101 -440 101 -722 0 -238
-16 -377 -71 -597 -21 -83 -23 -106 -13 -118 20 -24 49 -18 61 13 18 44 56
209 76 322 22 134 26 609 5 735 -34 202 -55 294 -89 395 -15 46 -22 55 -45 58
-19 2 -28 -2 -33 -18z"/>
<path d="M14566 6048 c-155 -157 -210 -258 -145 -266 23 -3 32 5 59 49 17 28
77 98 132 155 89 92 98 105 88 123 -20 38 -49 25 -134 -61z"/>
<path d="M7815 6099 c-167 -35 -264 -65 -380 -114 -16 -7 -55 -23 -85 -36
-141 -59 -445 -226 -700 -384 -287 -178 -702 -427 -820 -494 -133 -74 -482
-246 -580 -285 -394 -160 -655 -221 -980 -233 -263 -9 -489 29 -740 124 -104
39 -302 138 -393 197 -56 36 -59 37 -78 20 -10 -9 -19 -23 -19 -30 0 -30 194
-145 375 -222 140 -59 176 -72 305 -105 345 -88 692 -83 1085 18 158 41 345
104 462 156 24 10 45 19 47 19 15 0 362 169 474 232 59 32 174 97 227 128 62
36 334 200 440 265 423 261 650 392 810 469 100 49 264 119 320 138 30 10 44
14 145 41 30 9 101 21 157 28 174 21 333 -12 487 -102 l70 -40 20 21 c28 27
16 45 -60 91 -71 43 -156 76 -244 95 -71 15 -280 17 -345 3z"/>
<path d="M10731 5476 c-16 -19 4 -225 23 -245 18 -17 53 -6 61 19 3 11 1 45
-4 77 -6 31 -11 75 -11 98 0 22 -5 46 -12 53 -16 16 -43 15 -57 -2z"/>
<path d="M13925 5227 c-218 -130 -484 -333 -759 -581 l-76 -69 -93 38 c-89 37
-135 57 -252 110 -66 30 -92 31 -100 6 -11 -35 7 -50 108 -91 56 -23 110 -46
119 -51 48 -25 219 -99 228 -99 6 0 54 39 108 88 211 190 393 341 482 402 19
13 37 27 40 31 6 7 187 125 237 154 35 21 45 37 37 60 -7 18 -51 19 -79 2z"/>
<path d="M9365 5146 c-230 -67 -359 -139 -495 -276 -159 -159 -248 -326 -409
-763 -66 -178 -132 -333 -183 -427 -151 -279 -364 -487 -633 -615 -168 -80
-425 -156 -606 -180 -26 -3 -55 -12 -65 -19 -16 -12 -16 -18 -6 -40 16 -36 19
-35 267 21 481 109 804 316 1030 663 100 154 168 303 290 630 133 357 217 516
346 654 104 112 239 197 394 249 128 44 140 47 167 47 32 0 51 21 46 52 -4 32
-43 33 -143 4z"/>
<path d="M11470 2990 c0 -35 97 -183 200 -305 81 -97 264 -278 340 -337 30
-23 57 -45 60 -48 11 -12 138 -99 205 -140 74 -46 275 -147 335 -169 19 -7 44
-17 55 -21 63 -26 175 -60 196 -60 14 0 29 -4 35 -8 8 -8 39 -16 169 -41 251
-50 586 -48 890 4 194 34 214 42 200 84 -8 26 -25 26 -151 2 -198 -38 -287
-46 -519 -46 -239 0 -299 6 -505 52 -331 72 -622 214 -910 442 -171 136 -403
392 -505 559 -32 53 -42 62 -66 62 -25 0 -29 -4 -29 -30z"/>
<path d="M14734 2181 c-33 -15 -133 -57 -223 -92 -90 -35 -166 -70 -169 -78
-13 -34 32 -62 72 -43 11 6 48 20 81 32 210 77 329 137 333 167 6 40 -28 45
-94 14z"/>
</g>
</svg>
